# xmcd
#
# Track frame offsets:
#	150
#	11466
#	24328
#	38014
#	47337
#	65304
#	77535
#	91158
#	102165
#	114006
#
# Disc length: 1706 seconds
#
# Revision: 1
# Processed by: cddbd v1.4PL0 Copyright (c) Steve Scherf et al.
# Submitted via: audiograbber 1.80.04
#
DISCID=5b06a80a
DTITLE=Kelly Spinks - Kelly Spinks
DYEAR=1997
DGENRE=Male
TTITLE0=Yes, Maam
TTITLE1=My First Reaction
TTITLE2=This Time
TTITLE3=For A Minute There
TTITLE4=I've Found Another One
TTITLE5=No Tears Tonight
TTITLE6=He's Written All Over Your Face
TTITLE7=Proper Introduction To The Blues
TTITLE8=Tonight I'm Going Home To An Angel
TTITLE9=Crystal Bar
EXTD=
EXTT0=
EXTT1=
EXTT2=
EXTT3=
EXTT4=
EXTT5=
EXTT6=
EXTT7=
EXTT8=
EXTT9=
PLAYORDER=
